HIERARCHY
ROOT Hips
{
	OFFSET 0.000000 0.000000 0.000000
	CHANNELS 6 Xposition Yposition Zposition Zrotation Xrotation Yrotation
	JOINT Spine1
	{
		OFFSET 0.000000 -0.000003 16.661682
		CHANNELS 6 Xposition Yposition Zposition Zrotation Xrotation Yrotation
		JOINT Neck
		{
			OFFSET 0.000000 -0.000002 13.283280
			CHANNELS 6 Xposition Yposition Zposition Zrotation Xrotation Yrotation
			JOINT Head
			{
				OFFSET 0.000000 -1.089817 8.446080
				CHANNELS 6 Xposition Yposition Zposition Zrotation Xrotation Yrotation
				End Site
				{
					OFFSET 0.000000 -0.000002 10.898134
				}
			}
		}
		JOINT LeftShoulder
		{
			OFFSET 2.194602 0.288073 10.725539
			CHANNELS 6 Xposition Yposition Zposition Zrotation Xrotation Yrotation
			JOINT LeftArm
			{
				OFFSET 7.830960 0.000000 0.000000
				CHANNELS 6 Xposition Yposition Zposition Zrotation Xrotation Yrotation
				JOINT LeftForeArm
				{
					OFFSET 15.355260 0.000000 0.000000
					CHANNELS 6 Xposition Yposition Zposition Zrotation Xrotation Yrotation
					JOINT LeftHand
					{
						OFFSET 14.270699 0.000000 0.000000
						CHANNELS 6 Xposition Yposition Zposition Zrotation Xrotation Yrotation
						End Site
						{
							OFFSET 8.173601 0.000000 0.000000
						}
					}
				}
			}
		}
		JOINT RightShoulder
		{
			OFFSET -2.164326 0.288073 10.725539
			CHANNELS 6 Xposition Yposition Zposition Zrotation Xrotation Yrotation
			JOINT RightArm
			{
				OFFSET -7.830960 0.000000 0.000000
				CHANNELS 6 Xposition Yposition Zposition Zrotation Xrotation Yrotation
				JOINT RightForeArm
				{
					OFFSET -15.355261 0.000000 0.000000
					CHANNELS 6 Xposition Yposition Zposition Zrotation Xrotation Yrotation
					JOINT RightHand
					{
						OFFSET -14.270702 0.000000 0.000000
						CHANNELS 6 Xposition Yposition Zposition Zrotation Xrotation Yrotation
						End Site
						{
							OFFSET -8.173601 0.000000 0.000000
						}
					}
				}
			}
		}
	}
	JOINT LeftUpLeg
	{
		OFFSET 5.449080 0.000000 0.000000
		CHANNELS 6 Xposition Yposition Zposition Zrotation Xrotation Yrotation
		JOINT LeftLeg
		{
			OFFSET 0.000000 0.000004 -22.916941
			CHANNELS 6 Xposition Yposition Zposition Zrotation Xrotation Yrotation
			JOINT LeftFoot
			{
				OFFSET 0.000000 0.000004 -24.025803
				CHANNELS 6 Xposition Yposition Zposition Zrotation Xrotation Yrotation
				JOINT LeftToeBase
				{
					OFFSET 0.000000 -8.173619 -3.541901
					CHANNELS 6 Xposition Yposition Zposition Zrotation Xrotation Yrotation
					End Site
					{
						OFFSET 0.000000 -2.179627 0.000000
					}
				}
			}
		}
	}
	JOINT RightUpLeg
	{
		OFFSET -5.449080 0.000000 0.000000
		CHANNELS 6 Xposition Yposition Zposition Zrotation Xrotation Yrotation
		JOINT RightLeg
		{
			OFFSET 0.000000 0.000004 -22.916941
			CHANNELS 6 Xposition Yposition Zposition Zrotation Xrotation Yrotation
			JOINT RightFoot
			{
				OFFSET 0.000000 0.000004 -24.025803
				CHANNELS 6 Xposition Yposition Zposition Zrotation Xrotation Yrotation
				JOINT RightToeBase
				{
					OFFSET 0.000000 -8.173619 -3.541901
					CHANNELS 6 Xposition Yposition Zposition Zrotation Xrotation Yrotation
					End Site
					{
						OFFSET 0.000000 -2.179627 0.000000
					}
				}
			}
		}
	}
}
MOTION
Frames: 4
Frame Time: 0.041667
-2.055840 -1.107554 45.058868 -1.186155 18.239518 -2.512929 0.000000 -0.000002 16.661688 -3.191313 -19.976572 -11.084092 -0.000001 -0.000001 13.283278 -3.385632 11.025957 -3.035703 0.000000 -1.089817 8.446072 -1.811209 3.037502 14.773091 2.194602 0.288074 10.725542 1.299061 -5.323668 -17.593959 7.830962 0.000001 0.000003 -9.092889 -11.757668 8.385021 15.355261 -0.000001 0.000002 1.295251 -6.608695 2.603104 14.270697 0.000002 0.000002 16.303976 -7.173941 -3.767972 -2.164327 0.288074 10.725534 -4.308944 -0.857376 13.868364 -7.830962 -0.000000 0.000011 24.214515 18.344087 -22.302844 -15.355260 0.000000 0.000012 75.983225 37.040751 37.393575 -14.270711 0.000006 0.000008 -4.512645 7.525771 33.315692 5.449080 0.000001 0.000000 17.551148 -37.090697 -13.907844 0.000001 0.000005 -22.916939 16.032018 32.301809 3.238356 -0.000001 0.000002 -24.025797 18.233740 4.095192 7.079485 0.000001 -8.173618 -3.541904 0.000001 -0.000001 -0.000002 -5.449080 0.000000 -0.000001 13.576310 -26.927138 35.877170 -0.000002 0.000006 -22.916950 -19.716074 29.727746 -13.731599 0.000004 0.000003 -24.025801 -26.746112 -2.896704 -12.670898 0.000001 -8.173619 -3.541901 -0.000001 0.000000 -0.000001 
-2.059998 -1.106119 45.060677 -1.173488 18.265442 -2.547719 0.000000 -0.000002 16.661678 -3.171650 -19.980180 -11.088222 -0.000002 -0.000001 13.283287 -3.272541 11.008020 -2.943250 -0.000001 -1.089813 8.446058 -1.715941 3.136701 14.737554 2.194600 0.288073 10.725544 1.275277 -5.385790 -17.573884 7.830963 -0.000001 -0.000002 -9.071013 -11.757670 8.368542 15.355258 0.000000 0.000000 1.296916 -6.607214 2.593600 14.270699 -0.000001 -0.000003 16.359099 -7.172864 -3.758535 -2.164328 0.288073 10.725542 -4.260799 -0.917054 13.866048 -7.830964 -0.000001 -0.000012 24.183308 18.318304 -22.285592 -15.355257 -0.000000 -0.000000 76.094933 37.035092 37.304103 -14.270711 0.000006 0.000007 -4.531448 7.531440 33.312796 5.449080 0.000001 -0.000008 17.459627 -37.083583 -13.908687 -0.000002 0.000003 -22.916937 16.104227 32.280044 3.216536 0.000000 0.000003 -24.025803 18.252523 4.122717 7.097377 0.000000 -8.173617 -3.541901 0.000000 -0.000002 -0.000000 -5.449081 0.000002 -0.000001 13.588873 -26.929925 35.915897 0.000001 0.000003 -22.916941 -19.778245 29.713167 -13.715475 0.000002 0.000005 -24.025801 -26.713068 -2.911080 -12.655448 0.000001 -8.173621 -3.541901 -0.000002 -0.000000 -0.000001 
-2.060880 -1.110065 45.062210 -1.156343 18.263578 -2.603826 0.000000 -0.000001 16.661678 -3.132455 -19.978911 -11.054700 0.000001 -0.000002 13.283283 -3.149772 11.065465 -2.760989 0.000003 -1.089815 8.446080 -1.614911 3.149467 14.590876 2.194603 0.288073 10.725548 1.245474 -5.421951 -17.591238 7.830962 -0.000000 0.000008 -9.069467 -11.749439 8.387916 15.355261 -0.000002 0.000000 1.297984 -6.583613 2.536153 14.270694 0.000000 0.000002 16.456543 -7.131032 -3.613122 -2.164326 0.288072 10.725535 -4.245973 -0.935052 13.899916 -7.830963 -0.000001 -0.000003 24.172449 18.258407 -22.311574 -15.355260 -0.000003 -0.000002 76.196989 37.010524 37.197613 -14.270706 0.000004 -0.000001 -4.548859 7.534369 33.340978 5.449080 0.000001 -0.000004 17.400361 -37.029635 -13.877149 -0.000000 0.000006 -22.916941 16.137572 32.238254 3.212857 0.000001 0.000005 -24.025801 18.298551 4.158442 7.073101 -0.000000 -8.173619 -3.541904 -0.000001 -0.000001 0.000000 -5.449079 0.000001 -0.000002 13.591983 -26.903352 35.974125 -0.000003 0.000005 -22.916939 -19.790707 29.704332 -13.728374 0.000000 0.000003 -24.025805 -26.711553 -2.930239 -12.657292 -0.000001 -8.173618 -3.541901 -0.000001 -0.000002 0.000000 
-2.066198 -1.107999 45.064220 -1.125231 18.276973 -2.627187 0.000000 -0.000001 16.661688 -3.101666 -19.969486 -11.049508 0.000000 -0.000000 13.283279 -3.045495 11.198243 -2.548591 -0.000002 -1.089817 8.446090 -1.512058 3.002835 14.459709 2.194603 0.288074 10.725543 1.170247 -5.461330 -17.537634 7.830962 0.000001 -0.000000 -9.101108 -11.758779 8.300129 15.355263 -0.000001 -0.000008 1.330539 -6.592414 2.513872 14.270706 -0.000003 0.000009 16.476604 -7.137766 -3.591209 -2.164325 0.288074 10.725545 -4.230092 -0.956410 13.949183 -7.830962 -0.000000 -0.000008 24.128895 18.197038 -22.359989 -15.355263 -0.000004 0.000002 76.210233 37.009694 37.145328 -14.270706 0.000010 0.000012 -4.486272 7.592346 33.351711 5.449081 0.000001 -0.000001 17.319995 -37.030048 -13.884124 -0.000000 0.000005 -22.916937 16.157287 32.224812 3.207881 -0.000001 0.000004 -24.025797 18.325659 4.183587 7.111613 0.000000 -8.173618 -3.541901 0.000001 -0.000002 0.000001 -5.449081 0.000001 -0.000000 13.591233 -26.890974 35.993485 -0.000001 0.000004 -22.916937 -19.832052 29.693616 -13.725929 0.000004 0.000004 -24.025803 -26.714581 -2.939701 -12.700143 0.000001 -8.173620 -3.541901 0.000002 0.000000 0.000000 
